<svg xmlns="http://www.w3.org/2000/svg" viewBox="0 0 32 40" x="0px" y="0px"><title>Artboard 6</title><g data-name="Layer 7"><path d="M26.59,3a.94.94,0,0,1,1.33,0L29,4.08a1,1,0,0,1,0,1.34l-.71.72L25.87,3.73ZM5.42,29a.94.94,0,0,1-1.33,0L3,27.92a.94.94,0,0,1,0-1.33l.73-.72,2.41,2.41Zm4.19.36a1,1,0,0,1-1.34,0L6.94,28h0L4,25.08H4L2.65,23.73a1,1,0,0,1,0-1.34l1.59-1.58,3.47,3.48,3.48,3.47Zm5.68-4.12a.94.94,0,0,1-.27.67l-1.65,1.65a1,1,0,0,1-1.34,0l0-.05h0L8.24,23.76,4.45,20a1,1,0,0,1,0-1.34L6.1,17a1,1,0,0,1,1.34,0l2.31,2.31h0l2.92,2.92h0L15,24.56A.94.94,0,0,1,15.29,25.23ZM13,21.45,10.55,19,19,10.55,21.45,13Zm14.59-8.08L25.9,15a1,1,0,0,1-1.34,0l-2.31-2.31v0h0L19.31,9.77v0h0L17,7.44A1,1,0,0,1,17,6.1l1.65-1.65a1,1,0,0,1,.67-.27,1,1,0,0,1,.67.27l0,0h0l3.75,3.74L27.55,12a1,1,0,0,1,.27.67A1,1,0,0,1,27.55,13.37Zm1.8-3.76-1.59,1.58L24.29,7.71,20.81,4.24l1.58-1.59a1,1,0,0,1,1.34,0l5.62,5.62A1,1,0,0,1,29.35,9.61Z"/></g><text x="0" y="47" fill="#000000" font-size="5px" font-weight="bold" font-family="'Helvetica Neue', Helvetica, Arial-Unicode, Arial, Sans-serif">Created by Rikas Dzihab</text><text x="0" y="52" fill="#000000" font-size="5px" font-weight="bold" font-family="'Helvetica Neue', Helvetica, Arial-Unicode, Arial, Sans-serif">from the Noun Project</text></svg>