<?xml version="1.0" encoding="UTF-8"?>
<!DOCTYPE svg PUBLIC "-//W3C//DTD SVG 1.1//EN" "http://www.w3.org/Graphics/SVG/1.1/DTD/svg11.dtd">
<!-- Creator: CorelDRAW 2019 (64-Bit) -->
<svg xmlns="http://www.w3.org/2000/svg" xml:space="preserve" width="181.498mm" height="181.507mm" version="1.1" style="shape-rendering:geometricPrecision; text-rendering:geometricPrecision; image-rendering:optimizeQuality; fill-rule:evenodd; clip-rule:evenodd"
viewBox="0 0 19369.92 19370.93"
 xmlns:xlink="http://www.w3.org/1999/xlink">
 <defs>
  <style type="text/css">
   <![CDATA[
    .fil0 {fill:white}
   ]]>
  </style>
 </defs>
 <g id="Layer_x0020_1">
  <metadata id="CorelCorpID_0Corel-Layer"/>
  <path class="fil0" d="M4994.6 14377.23c1932.67,1932.67 2929.19,4066.6 2225.59,4770.2 -589.94,589.94 -2203.6,-26.18 -3848.13,-1399.18l-927.06 927.06c-241.37,241.37 -633.3,241.37 -874.7,0l-874.7 -874.7c-241.37,-241.37 -241.37,-633.3 0,-874.7l927.06 -927.06c-1373,-1643.84 -1989.13,-3257.42 -1399.18,-3848.12 703.69,-703.69 2837.66,292.92 4770.2,2225.58l0.91 0.91zm3975.69 -10970.84c-532.67,527.75 -91.64,1872.12 990.89,3329.49l1475.28 -1475.28 2674.88 2674.89 -1475.28 1475.28c1457.26,1082.53 2801.63,1522.72 3329.49,990.89 702.86,-702.86 -292.1,-2836.81 -2225.59,-4769.57 -1933.48,-1933.49 -4067.42,-2928.35 -4769.56,-2225.59l-0.11 -0.11zm8782.94 -39.27l1115.25 -1115.25c240.55,-240.55 240.55,-634.12 0,-874.7l-874.7 -874.7c-240.55,-240.55 -634.12,-240.55 -874.7,0l-1115.25 1115.25c-1649.56,-1364.8 -3260.57,-1985.85 -3853.15,-1393.44l-2308.32 2308.33c1305.09,126.83 3006.9,1282.99 4359.42,2635.51 1352.53,1352.53 2509.42,3054.45 2635.51,4359.43l2308.33 -2308.33c592.4,-592.4 -28.63,-2203.6 -1393.44,-3853.15l1.05 1.05zm-4568.9 4568.9l-1749.37 -1749.39 -4176.36 4176.36c-1649.56,-1364.8 -3260.57,-1985.85 -3853.15,-1393.44l-2313.15 2313.15c362.48,35.19 802.68,153.01 1331.27,401.76 968.78,449.21 2046.39,1243.7 3033.09,2229.76 985.97,985.97 1780.47,2064.41 2229.78,3033.09 248.74,527.75 366.57,968.78 401.76,1331.27l2313.15 -2313.15c592.4,-592.4 -28.63,-2203.6 -1393.44,-3853.14l4176.45 -4176.27z"/>
 </g>
</svg>
