<?xml version="1.0" encoding="UTF-8"?>
<!DOCTYPE svg PUBLIC "-//W3C//DTD SVG 1.1//EN" "http://www.w3.org/Graphics/SVG/1.1/DTD/svg11.dtd">
<!-- Creator: CorelDRAW 2019 (64-Bit) -->
<svg xmlns="http://www.w3.org/2000/svg" xml:space="preserve" width="176.623mm" height="153.667mm" version="1.1" style="shape-rendering:geometricPrecision; text-rendering:geometricPrecision; image-rendering:optimizeQuality; fill-rule:evenodd; clip-rule:evenodd"
viewBox="0 0 19976.04 17379.74"
 xmlns:xlink="http://www.w3.org/1999/xlink">
 <defs>
  <style type="text/css">
   <![CDATA[
    .fil0 {fill:black}
   ]]>
  </style>
 </defs>
 <g id="Layer_x0020_1">
  <metadata id="CorelCorpID_0Corel-Layer"/>
  <g>
   <path class="fil0" d="M3358.79 4099.98c36.42,-17.34 53.77,-60.7 39.02,-98.85 -201.17,-507.28 -313.91,-1046.62 -330.38,-1592.91 0,-1212.24 1276.42,-1209.64 2882.26,-1208.77l397.14 -0.02c1605.93,0 2882.26,-3.47 2882.26,1208.77 -17.34,546.29 -129.21,1085.64 -330.38,1592.91 -14.74,38.16 2.6,81.51 39.02,98.85 313.91,148.27 615.64,320.83 901.8,516.8 19.08,13.01 44.22,16.48 66.76,10.41 22.54,-6.93 40.75,-24.28 49.42,-45.95 290.49,-689.37 452.65,-1425.56 476.91,-2173.03 0,-2412.31 -1809.67,-2409.65 -4086.73,-2408.1l-396.29 0.01c-2277.13,-1.73 -4087.63,-3.47 -4087.63,2408.1 25.14,747.47 187.31,1483.66 478.64,2172.17 7.8,22.54 26.01,39.02 49.42,45.95 22.54,6.93 46.82,3.47 65.9,-10.41l1.03 0.87 901.82 -516.8zm4091.06 11569.12l-294.82 294.82c-91.05,91.05 -91.05,238.46 0,329.52l482.12 482.12c91.05,89.32 237.59,89.32 329.52,0l294.82 -295.69 0 0.87c30.34,-31.22 30.34,-80.64 0,-111l-701.52 -701.52 0.87 0.01c-14.74,-14.74 -34.69,-23.41 -55.5,-23.41 -20.81,0 -41.62,8.67 -55.5,23.41l0 0.86zm195.11 -477.78l2126.18 2126.19 -0.87 -0.87c86.71,84.11 224.58,84.11 311.29,0l794.28 -794.28c29.49,-31.22 29.49,-79.78 0,-111l-3357.5 -3357.53c-14.74,-14.74 -34.69,-23.41 -55.5,-23.41 -20.81,0 -40.75,8.67 -55.5,23.41l-754.39 754.39c-98.85,97.99 -163.02,228.04 -39.02,350.32l1031.03 1032.77zm2404.57 -3256.96l230.67 230.67 0 0.87c31.22,30.34 80.64,30.34 111,0l-0.07 -0.89 1880.81 -1879.93 -0.87 -0.01c15.61,-13.88 23.41,-33.82 23.41,-54.63l3.47 -205.51c-0.87,-1657.96 -670.29,-3244.75 -1858.26,-4401.52 -1187.1,-1157.6 -2792.12,-1785.42 -4449.23,-1742.93 -3450.52,88.48 -6159.26,3013.68 -5982.25,6460.88 84.98,1656.19 834.17,3207.44 2079.38,4302.72 1244.34,1095.18 2878.92,1641.47 4531.6,1514 39.02,-2.6 69.38,-33.82 71.98,-72.84 10.41,-152.62 75.44,-295.69 183.83,-403.21l293.09 -294.82c14.74,-14.74 23.41,-34.69 23.41,-55.5 0,-20.81 -8.67,-40.75 -23.41,-55.5l-835.04 -836.77c-124,-123.13 -189.04,-293.09 -181.23,-467.39 7.8,-174.3 88.44,-337.31 222.85,-449.17l751.8 -751.8c15.61,-14.74 24.28,-34.69 24.28,-55.5 0,-21.68 -8.67,-41.62 -24.28,-55.5l-279.21 -279.21 0.85 0.02c-240.19,-241.92 -240.19,-632.15 0,-874.06l950.36 -951.25c241.92,-240.18 632.15,-240.18 874.93,0l955.57 956.44 420.56 422.33zm145.63 708.43l-1803.62 -1803.63c-86.71,-84.11 -224.58,-84.11 -311.29,0l-951.25 950.36c-84.11,85.84 -84.11,224.58 0,310.43l4700.74 4700.75c40.75,41.62 97.12,65.03 155.22,65.03 58.1,0 114.46,-23.41 155.22,-65.03l951.25 -950.36 0 0.87c85.84,-86.71 85.84,-225.44 0,-312.16l-2896.27 -2896.26zm8069.59 -7678.45l701.52 701.52 -0.86 0c14.74,14.74 34.69,23.41 55.5,23.41 20.81,0 40.75,-8.67 55.5,-23.41l421.41 -420.55 0.86 0c89.32,-91.92 89.32,-238.46 0,-330.38l-482.99 -481.26c-91.92,-91.05 -239.32,-91.05 -330.38,0l-421.41 421.41 0 0.87c-30.34,30.34 -30.34,78.91 0,109.25l0.86 -0.86zm853.27 3317.57l794.28 -794.28c84.98,-86.71 84.98,-225.44 0,-312.16l-3158.18 -3158.18c-86.71,-84.98 -225.44,-84.98 -312.16,0l-794.28 794.28 0.86 0c-15.61,14.74 -23.41,34.69 -23.41,55.5 0,21.68 7.8,41.62 23.41,55.5l3360.18 3359.3c30.34,29.49 78.91,29.49 109.25,0l0.03 0.03zm-4076.31 -205.51l-4369.55 4370.43c-30.34,30.34 -30.34,79.78 0,111l702.39 701.52 0 -0.87c13.88,14.74 33.82,23.41 54.63,23.41 20.81,0 39.89,-8.67 54.63,-23.41l4370.44 -4370.43c14.74,-14.74 23.41,-34.69 23.41,-55.5 0,-20.81 -8.67,-40.75 -23.41,-55.5l-701.52 -700.63c-30.34,-30.34 -79.78,-30.34 -111,0l-0.02 -0.01zm195.97 -477.78l2896.24 2898.01c86.71,84.97 225.44,84.97 312.16,0l950.36 -951.25c41.62,-41.62 65.03,-97.12 65.03,-155.22 0,-58.96 -23.41,-114.46 -64.16,-156.08l-4699.87 -4700.75c-86.71,-85.84 -225.44,-85.84 -312.16,0l-950.36 951.25c-84.11,85.84 -84.11,224.58 0,310.43l1802.76 1803.61z"/>
  </g>
 </g>
</svg>
